PathFileType	4	(X/Y/Z)	RBDS018\RBDS018runT35.trc
DataRate	CameraRate	NumFrames	NumMarkers	Units	OrigDataRate	OrigDataStartFrame	OrigNumFrames
150.000000	150.000000	4	33	mm	150.000000	1687	4500
Frame#	Time	L.ASIS			L.Heel.Bottom			L.Heel.Lateral			L.Heel.Top			L.Iliac.Crest			L.MT1			L.MT5			L.PSIS			L.Shank.Bottom.Lateral			L.Shank.Bottom.Medial			L.Shank.Top.Lateral			L.Shank.Top.Medial			L.Thigh.Bottom.Lateral			L.Thigh.Bottom.Medial			L.Thigh.Top.Lateral			L.Thigh.Top.Medial			R.ASIS			R.ASY			R.Heel.Bottom			R.Heel.Lateral			R.Heel.Top			R.Iliac.Crest			R.MT1			R.MT5			R.PSIS			R.Shank.Bottom.Lateral			R.Shank.Bottom.Medial			R.Shank.Top.Lateral			R.Shank.Top.Medial			R.Thigh.Bottom.Lateral			R.Thigh.Bottom.Medial			R.Thigh.Top.Lateral			R.Thigh.Top.Medial			
		X1	Y1	Z1	X2	Y2	Z2	X3	Y3	Z3	X4	Y4	Z4	X5	Y5	Z5	X6	Y6	Z6	X7	Y7	Z7	X8	Y8	Z8	X9	Y9	Z9	X10	Y10	Z10	X11	Y11	Z11	X12	Y12	Z12	X13	Y13	Z13	X14	Y14	Z14	X15	Y15	Z15	X16	Y16	Z16	X17	Y17	Z17	X18	Y18	Z18	X19	Y19	Z19	X20	Y20	Z20	X21	Y21	Z21	X22	Y22	Z22	X23	Y23	Z23	X24	Y24	Z24	X25	Y25	Z25	X26	Y26	Z26	X27	Y27	Z27	X28	Y28	Z28	X29	Y29	Z29	X30	Y30	Z30	X31	Y31	Z31	X32	Y32	Z32	X33	Y33	Z33	

1688	11.24666666666667	2066.066218276925	971.7312571296329	901.697321925791	1698.436828059752	494.3013194788502	940.1638623395165	1714.767574019522	467.1168835774418	892.7440657188109	1748.886560782805	489.9061255117884	939.8381648981182	2006.300120716494	1049.522784789462	841.1435804542809	1732.882782571251	274.6978546753712	976.6758429853721	1735.807751108363	304.1022778197224	865.8002005610133	1886.346698587151	1010.225230793785	923.7816008955614	1863.371044966053	467.2440053632349	876.3318481357425	1857.935446969233	499.9615332942899	915.1981525652468	1939.52343267817	492.7169758485774	862.5180670582133	1937.426651404729	526.4684687983145	903.3503632866825	2159.402023904004	606.5767644241681	828.7633609111933	2099.212823834373	578.557830718448	859.5859470459294	2107.337335922638	701.5684995481765	812.9741309264307	2048.103393939613	673.5611753886365	838.1286685352163	2030.825659890678	994.7650750925051	1130.409372331269	1935.347473225318	80.95325905677139	1003.764964371492	1739.392423004292	41.31364500985274	975.8699954284697	1758.293708225551	52.56320640185398	1016.167242040185	1755.01302471662	89.88317007868639	981.3103340775754	1960.513051076589	1061.113338734349	1146.868171541799	1967.292196155305	46.5403952169664	954.2574874314729	1925.698011004726	40.06685507409568	1062.947181889278	1867.756138930256	1020.127998868604	1029.230150468531	1867.115155767778	179.3431421160972	1077.0362407108	1828.898501120188	207.0573501167048	1047.738063001625	1895.048077463475	250.571424012104	1105.711256832691	1858.270882149722	276.8686935183805	1074.966218905299	1995.635832212906	580.7919800173477	1164.615632075359	1940.103062405481	574.4678004488912	1118.181381046793	1967.697983692603	686.6213122985233	1181.439142336809	1914.554210659432	679.7383671625759	1139.295376604061	
1689	11.25333333333333	2064.459009569865	976.0184403788619	901.1417693793942	1709.518205789977	478.2959483284217	939.0623572349533	1727.544196274995	452.3566292527471	891.5742487083896	1760.152750098428	476.9489764804811	938.7352099567174	2003.898499480873	1053.292055006486	841.7105274421592	1757.21285239445	261.0491595638757	974.5292808526333	1758.289063663653	291.0260827627989	863.7376396333051	1885.23157971841	1013.368619076473	924.7746900252208	1876.525782796295	460.2562199382974	875.4497340046775	1869.050213654803	492.8630620003849	914.0159072108138	1951.065086822138	489.7857649735292	861.517976565809	1947.058703218229	523.6457465710282	902.1410487209499	2167.979709707609	615.8001396513612	829.0405878279682	2109.041777475942	585.8094916133048	860.3487923703834	2112.497038382891	708.846667096952	813.1730813716795	2054.433563719924	678.8569192848136	838.7655089478475	2030.398605928714	996.7177173042933	1130.362631929016	1912.029851930424	81.17261427664326	1004.699387593684	1715.745519173169	44.07436243335141	976.6352212328422	1734.69750051437	54.58544687032251	1017.077262343679	1731.883391758979	92.41989055445408	982.6458751741249	1960.184203434344	1064.949749448416	1146.655873278241	1943.307057643554	46.50645361584269	954.7659889309824	1901.771660345439	39.90754543094958	1063.257525775026	1867.235999181528	1022.544841595897	1030.290323830633	1845.157907444959	181.2916138326162	1077.652758840946	1807.284191434047	209.5954333601137	1048.486768827006	1874.273514535494	252.0365219769849	1106.23059356722	1837.957264520388	278.9403769574611	1075.594616318328	1983.434119511749	581.3393782346377	1164.491445616473	1927.071754444347	576.6665855968902	1118.934247022311	1959.22158826143	688.103053662938	1181.169077920507	1905.363662929532	682.8665370285069	1139.736539803356	
1690	11.26	2063.161001144656	980.8162228574224	900.5852438032241	1721.071812209153	461.1361436198981	938.4118033315474	1740.628930887662	436.6178605748066	890.8066683011066	1771.700199018273	462.9764727940976	937.9706275678075	2001.832087805701	1057.396350608346	842.3582356332071	1782.419350466961	247.0863937522641	972.499751619212	1781.262803710531	277.6487024900406	861.8634073716961	1884.399855351435	1016.979496931462	926.1540934318256	1889.448264797571	452.7808032522955	874.8025464323489	1879.897420755213	485.0728609988601	913.172476652441	1962.039974243175	486.5376805445767	860.7434477942861	1956.085355977678	520.2784551592068	901.2540929642988	2175.624121058901	625.3855761253259	829.4264187321447	2117.947354597122	593.6822006770886	861.3258011357607	2117.083554289788	716.5345490737154	813.4570128513909	2060.195748512378	684.8160428017765	839.6156799514291	2030.587000337091	998.9800217482261	1130.254258114066	1888.896294571382	81.51854503770666	1005.400457422125	1692.181149817649	47.55686013810272	977.3590182384542	1711.243629080935	57.30664054568642	1017.915033640257	1708.995569107261	95.62447133880082	983.8444949542809	1960.845502191212	1069.293408928971	1146.576980999316	1919.297108610559	46.38883147559252	955.0910384576699	1877.931716685784	39.87680016391771	1063.348448741583	1867.158587704608	1025.482200325797	1031.826770344558	1823.153909680836	183.9773731903148	1077.966388203407	1785.570033771651	212.7554688300371	1048.869754233306	1853.278089829337	254.3102546110915	1106.425139041396	1817.366970071234	281.7071948003129	1075.849636383839	1970.941553947134	582.6069532939775	1163.926305947692	1913.795658395234	579.8659302983675	1119.26440791886	1950.729984267607	690.1746937139989	1180.70969470864	1896.225479610356	686.8496663144042	1139.996350037271	
1691	11.26666666666667	2062.180909435873	985.9785888242578	900.1099257566449	1733.297436653627	442.9613788507342	938.141414781373	1754.218651832946	420.0097205682105	890.3802095536009	1783.71053677262	448.0843660301746	937.5042119913785	2000.112923649594	1061.785439947744	843.1002982492522	1808.48292403873	233.013009663128	970.5893935359493	1804.793277701665	264.0958314509941	860.1701529697818	1883.831568235994	1021.022616352172	927.9198095573904	1902.255102376253	444.8441987967597	874.366091233024	1890.64698966581	476.5922310946867	912.6640458804427	1972.566251949394	482.9220434953633	860.2053972989419	1964.663725658816	516.2917053845918	900.7144883697754	2182.322986232746	635.1272676197198	829.9097448843594	2125.85482460829	601.9713347266222	862.4464224132739	2121.109278745289	724.4769932474966	813.8075595503346	2065.353743372681	691.2908901104553	840.6036490667137	2031.346927565198	1001.468683876712	1130.145142236474	1866.065102140501	81.97796163796994	1005.886521520971	1668.825670983568	51.90576939967994	978.0485623832562	1688.066569739294	60.86286748149656	1018.683920226707	1686.504154306638	99.6150579869341	984.9043513928441	1962.525359920294	1073.934665215026	1146.695537846049	1895.31420905394	46.18890785412015	955.2416921279716	1854.255214512086	39.96860227482921	1063.240505812832	1867.513982121835	1028.939191132631	1033.835310018043	1801.261552453207	187.5007494659649	1077.998684667506	1763.934539414721	216.6388553894563	1048.88294052005	1832.224820461407	257.5029017299257	1106.304658906286	1796.668336026288	285.2778203941382	1075.721410437051	1958.312604674493	584.6634541012866	1162.921260419496	1900.492979621101	584.1377387923774	1119.123166340057	1942.333949594557	692.8596380110291	1180.089792164818	1887.295301209584	691.7040550200262	1140.068852388014	
